<?xml version="1.0" encoding="UTF-8"?> <svg xmlns="http://www.w3.org/2000/svg" xmlns:xlink="http://www.w3.org/1999/xlink" version="1.1" width="104px" height="87px" viewBox="0 0 104.0 87.0"><defs><clipPath id="i0"><path d="M1920,0 L1920,5622 L0,5622 L0,0 L1920,0 Z"></path></clipPath><clipPath id="i1"><path d="M11.4447367,0 L17.4546126,11.2301095 C17.8861969,12.0562091 18.101989,12.9129049 18.1381697,13.8307933 C18.1381697,12.7280524 18.2105312,11.8420351 18.3190733,11.1995132 L20.2973834,0 L28,0 L24.0407956,22 L16.4118326,22 L10.2934146,10.5569914 C10.1138031,10.1885612 9.89801098,9.39433273 9.75328811,8.1692067 L9.75328811,8.78240714 C9.75328811,9.42365417 9.71839956,10.0674509 9.6098574,10.6793765 L7.66643592,22 L0,22 L3.88684296,0 L11.4447367,0 Z"></path></clipPath><clipPath id="i2"><path d="M20.8434641,0 L26,22 L18.2291904,22 L17.8356991,19.3687199 L9.63410653,19.3687199 L8.34432959,22 L0,22 L12.6058658,0 L20.8434641,0 Z M15.6149167,6.79364895 L11.6748603,14.9322594 L16.9754192,14.9322594 L15.6149167,6.79364895 Z"></path></clipPath><clipPath id="i3"><path d="M12.3891462,0 C18.8118019,0 22.6177737,2.64332893 23,7.07926024 L15.4983381,7.07926024 C15.2878004,5.62087186 14.2401242,4.89167768 12.2512941,4.89167768 C10.8903177,4.89167768 9.98300005,5.55883972 9.98300005,6.38044914 C9.98300005,7.62615588 12.0420095,8.02113606 16.1612815,9.6010568 C20.1389419,11.1189454 22.0575928,13.0951123 22.0575928,15.9815059 C22.0575928,20.326288 18.2541274,23 11.272544,23 C4.01274996,23 0,20.1136063 0,15.4649934 L7.7823789,15.4649934 L7.7823789,15.5257596 C7.7823789,17.1347974 9.10951888,18.0171731 11.5181714,18.0171731 C13.297717,18.0171731 14.2401242,17.3791281 14.2401242,16.2549538 C14.2401242,14.9788639 12.599684,14.6142668 9.91282079,13.5812417 C4.92132076,11.667107 2.33972648,10.0555372 2.33972648,6.62351387 C2.33972648,2.52179657 5.96899689,0 12.3891462,0 Z"></path></clipPath><clipPath id="i4"><path d="M44.7809357,0.321055642 C74.5053801,-3.08435886 89.345731,21.3797369 87.9626901,36.8129775 C86.7378947,50.4861742 83.4507602,55.7199213 77.3640936,62.2047686 L99,62.2910957 L77.5725146,87 L28.134269,87 C13.3839766,81.9620996 6.78783626,76.8584875 0,63.4197916 L1.21192982,62.7459241 C7.20725146,76.6175444 21.2422222,85.9099581 36.9214035,85.9099581 C58.0787135,85.9099581 75.2335673,68.5362884 75.2335673,47.1000867 C75.2335673,25.6664619 58.0787135,8.29150366 36.9214035,8.29150366 C20.8768421,8.29150366 7.13649123,18.2822657 1.43192982,32.4592524 L0.268888889,31.5779419 C4.1748538,20.5203304 16.0805848,11.8090147 24.1163743,8.00031045 C33.1222222,3.73291247 40.7604678,0.91503827 44.7809357,0.321055642 Z"></path></clipPath></defs><g transform="translate(-241.0 -904.0)"><g clip-path="url(#i0)"><g transform="translate(136.0 857.0)"><g transform="translate(105.0 46.0)"><g transform="translate(0.0 1.0)"><g transform="translate(0.0 36.0)"><g clip-path="url(#i1)"><polygon points="0,0 28,0 28,22 0,22 0,0" stroke="none" fill="#001688"></polygon></g></g><g transform="translate(25.0 36.0)"><g clip-path="url(#i2)"><polygon points="0,0 26,0 26,22 0,22 0,0" stroke="none" fill="#001688"></polygon></g></g><g transform="translate(55.0 35.0)"><g clip-path="url(#i3)"><polygon points="0,0 23,0 23,23 0,23 0,0" stroke="none" fill="#001688"></polygon></g></g><g transform="translate(5.0 0.0)"><g clip-path="url(#i4)"><polygon points="0,0 99,0 99,87 0,87 0,0" stroke="none" fill="#001688"></polygon></g></g></g></g></g></g></g></svg> 